<?xml version="1.0" encoding="UTF-8" standalone="no"?>
<svg
   width="24"
   height="24"
   viewBox="0 0 24 24"
   fill="none"
   version="1.1"
   id="svg2"
   sodipodi:docname="Apple.svg"
   inkscape:version="1.4 (e7c3feb100, 2024-10-09)"
   xmlns:inkscape="http://www.inkscape.org/namespaces/inkscape"
   xmlns:sodipodi="http://sodipodi.sourceforge.net/DTD/sodipodi-0.dtd"
   xmlns="http://www.w3.org/2000/svg"
   xmlns:svg="http://www.w3.org/2000/svg">
  <defs
     id="defs2" />
  <sodipodi:namedview
     id="namedview2"
     pagecolor="#ffffff"
     bordercolor="#000000"
     borderopacity="0.25"
     inkscape:showpageshadow="2"
     inkscape:pageopacity="0.0"
     inkscape:pagecheckerboard="0"
     inkscape:deskcolor="#d1d1d1"
     showgrid="true"
     inkscape:zoom="11.75565"
     inkscape:cx="-3.3600864"
     inkscape:cy="5.1889941"
     inkscape:window-width="1920"
     inkscape:window-height="1011"
     inkscape:window-x="0"
     inkscape:window-y="0"
     inkscape:window-maximized="1"
     inkscape:current-layer="svg2">
    <inkscape:grid
       id="grid2"
       units="px"
       originx="0"
       originy="0"
       spacingx="1"
       spacingy="1"
       empcolor="#0099e5"
       empopacity="0.30196078"
       color="#0099e5"
       opacity="0.14901961"
       empspacing="5"
       enabled="true"
       visible="true" />
  </sodipodi:namedview>
  <path
     d="M4.84347 9.35205C3.15265 12.2862 4.22753 16.7388 6.0973 19.4386C7.03062 20.7884 7.97553 22 9.26976 22C9.29416 22 9.31862 21.9995 9.34367 21.9985C9.95173 21.9743 10.3911 21.7871 10.816 21.6062C11.293 21.4029 11.7863 21.1927 12.5601 21.1927C13.2962 21.1927 13.766 21.3961 14.2203 21.5926C14.668 21.7863 15.1292 21.9867 15.8106 21.974C17.2685 21.9468 18.1635 20.6394 18.9532 19.486C19.7773 18.2818 20.1907 17.1125 20.3302 16.6657L20.3358 16.6479C20.3624 16.5685 20.3249 16.4818 20.2487 16.4469C20.2466 16.4459 20.2389 16.4427 20.2367 16.4418C19.98 16.3368 17.7281 15.3378 17.7044 12.6149C17.6824 10.4027 19.3938 9.2312 19.737 9.01887L19.753 9.0089C19.7902 8.98497 19.8161 8.947 19.8249 8.90359C19.8336 8.86025 19.8245 8.81513 19.7995 8.77867C18.6183 7.05002 16.8078 6.78949 16.0789 6.75815C15.9731 6.74759 15.8639 6.74228 15.7543 6.74228C14.8982 6.74228 14.078 7.06562 13.4191 7.32543C12.9643 7.50477 12.5715 7.65966 12.3005 7.65966C11.9961 7.65966 11.601 7.50287 11.1435 7.32136C10.5317 7.07854 9.83822 6.8034 9.10413 6.8034C9.08662 6.8034 9.06937 6.80359 9.05239 6.80392C7.3455 6.82903 5.73265 7.80556 4.84347 9.35205Z"
     fill="black"
     id="path1"
     style="stroke:none;fill:#ffffff" />
  <path
     d="M16.0804 2.00013C15.0467 2.04222 13.8068 2.67849 13.0657 3.54655C12.4359 4.27619 11.8206 5.49272 11.9827 6.71895C11.9928 6.79567 12.0553 6.85488 12.1325 6.86085C12.2022 6.86629 12.2734 6.86905 12.3444 6.86911C13.3551 6.86911 14.4454 6.30996 15.19 5.40964C15.9736 4.45895 16.3699 3.23888 16.25 2.14603C16.2406 2.06039 16.1652 1.99678 16.0804 2.00013Z"
     fill="black"
     id="path2"
     style="stroke:none;fill:#ffffff" />
</svg>
