<?xml version="1.0" encoding="UTF-8" standalone="no"?>
<svg
   width="24"
   height="24"
   viewBox="0 0 24 24"
   fill="none"
   version="1.1"
   id="svg4"
   sodipodi:docname="controle.svg"
   inkscape:version="1.4 (e7c3feb100, 2024-10-09)"
   xmlns:inkscape="http://www.inkscape.org/namespaces/inkscape"
   xmlns:sodipodi="http://sodipodi.sourceforge.net/DTD/sodipodi-0.dtd"
   xmlns="http://www.w3.org/2000/svg"
   xmlns:svg="http://www.w3.org/2000/svg">
  <defs
     id="defs4" />
  <sodipodi:namedview
     id="namedview4"
     pagecolor="#ffffff"
     bordercolor="#000000"
     borderopacity="0.25"
     inkscape:showpageshadow="2"
     inkscape:pageopacity="0.0"
     inkscape:pagecheckerboard="0"
     inkscape:deskcolor="#d1d1d1"
     showgrid="true"
     inkscape:zoom="33.25"
     inkscape:cx="12.045113"
     inkscape:cy="12"
     inkscape:window-width="1920"
     inkscape:window-height="1011"
     inkscape:window-x="0"
     inkscape:window-y="0"
     inkscape:window-maximized="1"
     inkscape:current-layer="svg4">
    <inkscape:grid
       id="grid4"
       units="px"
       originx="0"
       originy="0"
       spacingx="1"
       spacingy="1"
       empcolor="#0099e5"
       empopacity="0.30196078"
       color="#0099e5"
       opacity="0.14901961"
       empspacing="5"
       enabled="true"
       visible="true" />
  </sodipodi:namedview>
  <path
     fill-rule="evenodd"
     clip-rule="evenodd"
     d="M7.36127 13.3297C4.97604 13.3297 3.02612 15.2796 3.02612 17.6648C3.02612 20.0501 4.97604 22 7.36127 22H16.631C19.0162 22 20.9661 20.0501 20.9661 17.6648C20.9661 15.2796 19.0162 13.3297 16.631 13.3297H7.36127ZM7.36127 14.7902H16.631C18.2277 14.7902 19.5057 16.0682 19.5057 17.6648C19.5057 19.2615 18.2277 20.5395 16.631 20.5395H7.36127C5.76461 20.5395 4.48659 19.2615 4.48659 17.6648C4.48659 16.0682 5.76461 14.7902 7.36127 14.7902Z"
     fill="black"
     id="path1"
     style="fill:#cf2d2d;fill-opacity:1" />
  <path
     d="M16.6309 19.7248C17.7686 19.7248 18.6909 18.8025 18.6909 17.6648C18.6909 16.5272 17.7686 15.6049 16.6309 15.6049C15.4933 15.6049 14.571 16.5272 14.571 17.6648C14.571 18.8025 15.4933 19.7248 16.6309 19.7248Z"
     fill="black"
     id="path2"
     style="fill:#cf2d2d;fill-opacity:1" />
  <path
     fill-rule="evenodd"
     clip-rule="evenodd"
     d="M16.6049 10.6703C18.9901 10.6703 20.9401 8.72037 20.9401 6.33514C20.9401 3.94992 18.9901 2 16.6049 2H7.33514C4.94992 2 3 3.94992 3 6.33514C3 8.72037 4.94992 10.6703 7.33514 10.6703H16.6049ZM16.6049 9.20982H7.33514C5.73849 9.20982 4.46047 7.9318 4.46047 6.33514C4.46047 4.73849 5.73849 3.46047 7.33514 3.46047H16.6049C18.2016 3.46047 19.4796 4.73849 19.4796 6.33514C19.4796 7.9318 18.2016 9.20982 16.6049 9.20982Z"
     fill="black"
     id="path3"
     style="fill:#cf2d2d;fill-opacity:1" />
  <path
     d="M7.36122 4.27521C6.22354 4.27521 5.30127 5.19748 5.30127 6.33516C5.30127 7.47284 6.22354 8.39511 7.36122 8.39511C8.49889 8.39511 9.42116 7.47284 9.42116 6.33516C9.42116 5.19748 8.49889 4.27521 7.36122 4.27521Z"
     fill="black"
     id="path4"
     style="fill:#cf2d2d;fill-opacity:1" />
</svg>
