<?xml version="1.0" encoding="UTF-8" standalone="no"?>
<svg
   width="24"
   height="24"
   viewBox="0 0 24 24"
   fill="none"
   version="1.1"
   id="svg4"
   sodipodi:docname="encontro.svg"
   inkscape:version="1.4 (e7c3feb100, 2024-10-09)"
   xmlns:inkscape="http://www.inkscape.org/namespaces/inkscape"
   xmlns:sodipodi="http://sodipodi.sourceforge.net/DTD/sodipodi-0.dtd"
   xmlns="http://www.w3.org/2000/svg"
   xmlns:svg="http://www.w3.org/2000/svg">
  <defs
     id="defs4" />
  <sodipodi:namedview
     id="namedview4"
     pagecolor="#ffffff"
     bordercolor="#000000"
     borderopacity="0.25"
     inkscape:showpageshadow="2"
     inkscape:pageopacity="0.0"
     inkscape:pagecheckerboard="0"
     inkscape:deskcolor="#d1d1d1"
     inkscape:zoom="33.25"
     inkscape:cx="12.045113"
     inkscape:cy="12"
     inkscape:window-width="1920"
     inkscape:window-height="1011"
     inkscape:window-x="0"
     inkscape:window-y="0"
     inkscape:window-maximized="1"
     inkscape:current-layer="svg4" />
  <path
     d="M6.39018 14.3365C3.97759 14.3365 2 16.3039 2 18.7266C2 19.1378 2.34331 19.4814 2.75453 19.4814H13.9993C14.4105 19.4814 14.7538 19.1378 14.7538 18.7266C14.7538 16.314 12.7863 14.3365 10.3636 14.3365H6.39018ZM6.39018 15.8455H10.3636C11.6976 15.8455 12.8021 16.7487 13.1336 17.9721H3.62061C3.95302 16.7563 5.05825 15.8455 6.39018 15.8455Z"
     fill="black"
     id="path1"
     style="fill:#cf2d2d;fill-opacity:1" />
  <path
     d="M13.6358 12.8665C12.5109 12.8665 11.4825 13.2964 10.7037 13.9977C11.4566 14.0091 12.1675 14.1911 12.8041 14.5031C13.0675 14.4227 13.3453 14.3753 13.6358 14.3753H17.6096C18.9436 14.3753 20.0482 15.2784 20.3797 16.5018H14.7083C14.9745 16.9646 15.1703 17.4718 15.2764 18.0114H21.2448C21.6559 18.0114 22 17.6674 22 17.2562C22 14.8436 20.0323 12.8665 17.6096 12.8665H13.6358Z"
     fill="black"
     id="path2"
     style="fill:#cf2d2d;fill-opacity:1" />
  <path
     d="M8.35707 6.47009C6.39197 6.47009 4.79126 8.06985 4.79126 10.026C4.79126 11.9821 6.39076 13.5918 8.35707 13.5918C10.3222 13.5918 11.9227 11.9911 11.9227 10.026C11.9227 8.06091 10.321 6.47009 8.35707 6.47009ZM8.35707 7.96944C9.48971 7.96944 10.4137 8.89336 10.4137 10.026C10.4137 11.1586 9.48971 12.0826 8.35707 12.0826C7.22443 12.0826 6.30031 11.1586 6.30031 10.026C6.30031 8.89336 7.22443 7.96944 8.35707 7.96944Z"
     fill="black"
     id="path3"
     style="fill:#cf2d2d;fill-opacity:1" />
  <path
     d="M15.603 5C13.6379 5 12.0372 6.59977 12.0372 8.55592C12.0372 10.5121 13.6367 12.1217 15.603 12.1217C17.5681 12.1217 19.1686 10.521 19.1686 8.55592C19.1686 6.59082 17.5669 5 15.603 5ZM15.603 6.49935C16.7356 6.49935 17.6596 7.42328 17.6596 8.55592C17.6596 9.68856 16.7356 10.6125 15.603 10.6125C14.4704 10.6125 13.5462 9.68856 13.5462 8.55592C13.5462 7.42328 14.4704 6.49935 15.603 6.49935Z"
     fill="black"
     id="path4"
     style="fill:#cf2d2d;fill-opacity:1" />
</svg>
