<?xml version="1.0" encoding="UTF-8" standalone="no"?>
<svg
   width="24"
   height="24"
   viewBox="0 0 24 24"
   fill="none"
   version="1.1"
   id="svg1"
   sodipodi:docname="Facebook.svg"
   inkscape:version="1.4 (e7c3feb100, 2024-10-09)"
   xmlns:inkscape="http://www.inkscape.org/namespaces/inkscape"
   xmlns:sodipodi="http://sodipodi.sourceforge.net/DTD/sodipodi-0.dtd"
   xmlns="http://www.w3.org/2000/svg"
   xmlns:svg="http://www.w3.org/2000/svg">
  <defs
     id="defs1" />
  <sodipodi:namedview
     id="namedview1"
     pagecolor="#ffffff"
     bordercolor="#000000"
     borderopacity="0.25"
     inkscape:showpageshadow="2"
     inkscape:pageopacity="0.0"
     inkscape:pagecheckerboard="0"
     inkscape:deskcolor="#d1d1d1"
     showgrid="true"
     inkscape:zoom="33.25"
     inkscape:cx="12.015038"
     inkscape:cy="12"
     inkscape:window-width="1920"
     inkscape:window-height="1011"
     inkscape:window-x="0"
     inkscape:window-y="0"
     inkscape:window-maximized="1"
     inkscape:current-layer="svg1">
    <inkscape:grid
       id="grid1"
       units="px"
       originx="0"
       originy="0"
       spacingx="1"
       spacingy="1"
       empcolor="#0099e5"
       empopacity="0.30196078"
       color="#0099e5"
       opacity="0.14901961"
       empspacing="5"
       enabled="true"
       visible="true" />
  </sodipodi:namedview>
  <path
     d="M20.4102 2H3.59185C2.71142 2 2 2.74479 2 3.66597V20.3347C2 21.2531 2.71142 22 3.59185 22H20.4102C21.2866 22 22 21.2538 22 20.3347V3.66597C21.9993 2.74479 21.2859 2 20.4102 2ZM15.4436 7.93798C15.0301 7.68459 14.7021 7.48439 14.2899 7.48439C13.8864 7.48439 13.5417 7.59009 13.3654 7.76788C13.189 7.94428 13.1015 8.28587 13.1015 8.79056V9.53745H15.2585L14.7916 11.615H13.1015V18.5183H10.3921V11.615H9.12759V9.53745H10.3935V8.74437C10.3935 7.90928 10.489 7.40949 10.6774 6.9972C10.8651 6.58631 11.2291 6.12852 11.7355 5.86952C12.2411 5.61123 12.9893 5.48103 13.7635 5.48103C14.5571 5.48103 15.177 5.75822 15.9372 5.98152L15.4436 7.93798Z"
     fill="black"
     id="path1"
     style="fill:#ffffff" />
</svg>
