<?xml version="1.0" encoding="UTF-8" standalone="no"?>
<svg
   width="24"
   height="24"
   viewBox="0 0 24 24"
   fill="none"
   version="1.1"
   id="svg4"
   sodipodi:docname="Google PLay.svg"
   inkscape:version="1.4 (e7c3feb100, 2024-10-09)"
   xmlns:inkscape="http://www.inkscape.org/namespaces/inkscape"
   xmlns:sodipodi="http://sodipodi.sourceforge.net/DTD/sodipodi-0.dtd"
   xmlns="http://www.w3.org/2000/svg"
   xmlns:svg="http://www.w3.org/2000/svg">
  <defs
     id="defs4" />
  <sodipodi:namedview
     id="namedview4"
     pagecolor="#ffffff"
     bordercolor="#000000"
     borderopacity="0.25"
     inkscape:showpageshadow="2"
     inkscape:pageopacity="0.0"
     inkscape:pagecheckerboard="0"
     inkscape:deskcolor="#d1d1d1"
     inkscape:zoom="33.25"
     inkscape:cx="12.015038"
     inkscape:cy="14.345865"
     inkscape:window-width="1920"
     inkscape:window-height="1011"
     inkscape:window-x="0"
     inkscape:window-y="0"
     inkscape:window-maximized="1"
     inkscape:current-layer="svg4" />
  <path
     d="M3.33463 2.08857C3.54163 1.96968 3.79639 1.97053 4.00259 2.09081L14.4587 8.19022L11.2222 11.103L3 3.703V2.66667C3 2.42796 3.12763 2.20746 3.33463 2.08857Z"
     fill="black"
     id="path1"
     style="fill:#ffffff" />
  <path
     d="M3 5.49683V18.5031L10.2257 11.9999L3 5.49683Z"
     fill="black"
     id="path2"
     style="fill:#ffffff" />
  <path
     d="M3 20.2968V21.3333C3 21.572 3.12763 21.7925 3.33463 21.9115C3.54163 22.0303 3.79639 22.0295 4.00259 21.9092L14.4588 15.8097L11.2222 12.8968L3 20.2968Z"
     fill="black"
     id="path3"
     style="fill:#ffffff" />
  <path
     d="M15.6681 15.1043L20.0025 12.5759C20.2073 12.4564 20.3333 12.2371 20.3333 12C20.3333 11.7629 20.2073 11.5436 20.0025 11.4242L15.668 8.89563L12.2188 11.9999L15.6681 15.1043Z"
     fill="black"
     id="path4"
     style="fill:#ffffff" />
</svg>
