<svg width="82" height="24" viewBox="0 0 82 24" fill="none" xmlns="http://www.w3.org/2000/svg">
<g clip-path="url(#clip0_67_1160)">
<path d="M72.6318 18.1761C74.4207 18.1761 75.861 16.7359 75.861 14.9471L75.861 14.247L75.8605 7.78948L69.403 7.78948L68.7029 7.78948C66.914 7.78948 65.4736 9.22975 65.4736 11.0185C65.4736 12.8073 66.914 14.2476 68.7029 14.2476L69.4025 14.247V14.9471C69.557 16.7906 70.944 18.1504 72.6318 18.1761Z" fill="white"/>
<path d="M72.6311 3.86031C70.8422 3.86031 69.4018 5.30058 69.4018 7.08935L69.4018 7.78945L69.4024 14.247L75.8598 14.247L76.56 14.247C78.3489 14.247 79.7893 12.8067 79.7893 11.0179C79.7893 9.22916 78.3489 7.78889 76.56 7.78889L75.8604 7.78945L75.8604 7.08935C75.7058 5.24588 74.3189 3.88606 72.6311 3.86031Z" fill="#CF2D2D"/>
<path d="M19.2354 1.0206C19.3599 1.25401 19.4299 1.46408 19.4455 1.65081C19.4766 1.83754 19.4922 2.10985 19.4922 2.46774V15.422C19.4922 16.4957 19.1965 17.1259 18.6052 17.3126C18.3095 17.406 17.9361 17.4527 17.4848 17.4527C17.0336 17.4527 16.6757 17.4138 16.4111 17.336C16.1466 17.2582 15.9443 17.1648 15.8043 17.0559C15.6642 16.947 15.5553 16.7914 15.4775 16.5891C15.3997 16.3245 15.3608 15.92 15.3608 15.3753V7.55609C14.9718 8.03847 14.4038 8.80872 13.6569 9.86685C12.91 10.9094 12.4354 11.563 12.2331 11.8275C12.0308 12.092 11.8907 12.2788 11.8129 12.3877C11.7351 12.481 11.5406 12.6211 11.2294 12.8078C10.9338 12.979 10.607 13.0646 10.2491 13.0646C9.90676 13.0646 9.58776 12.9868 9.29211 12.8312C9.01202 12.66 8.80973 12.4966 8.68525 12.341L8.49852 12.0842C8.18731 11.6952 7.57266 10.8705 6.65458 9.6101C5.7365 8.33412 5.23856 7.64945 5.16076 7.55609V15.422C5.16076 15.7799 5.1452 16.0522 5.11408 16.2389C5.09851 16.4101 5.02849 16.6046 4.90401 16.8225C4.6706 17.2426 4.06373 17.4527 3.08341 17.4527C2.1342 17.4527 1.5429 17.2426 1.30949 16.8225C1.185 16.6046 1.1072 16.4023 1.07608 16.2156C1.06052 16.0289 1.05273 15.7488 1.05273 15.3753V2.42106C1.05273 2.06317 1.06052 1.79863 1.07608 1.62747C1.1072 1.44074 1.185 1.23067 1.30949 0.997256C1.5429 0.592678 2.14977 0.390391 3.13009 0.390391C3.55023 0.390391 3.90812 0.444852 4.20378 0.553777C4.51499 0.647139 4.71728 0.748282 4.81064 0.857206L4.95069 0.997249L10.2491 7.95288C12.8944 4.45172 14.6606 2.14096 15.5475 1.02059C15.812 0.600451 16.4345 0.390381 17.4148 0.390381C18.4107 0.390381 19.0175 0.600451 19.2354 1.02059V1.0206Z" fill="white"/>
<path d="M33.2166 9.86682C33.2166 10.816 32.9754 11.524 32.4931 11.9908C32.0262 12.4421 31.505 12.6677 30.9292 12.6677H25.3974C25.3974 13.1034 25.6541 13.4691 26.1676 13.7648C26.6811 14.0604 27.1946 14.2082 27.7082 14.2082C28.6107 14.2082 29.3187 14.1149 29.8322 13.9282L30.0889 13.8348C30.4624 13.6636 30.7736 13.578 31.0226 13.578C31.5205 13.578 31.9484 13.9282 32.3063 14.6284C32.5086 15.0485 32.6098 15.4064 32.6098 15.7021C32.6098 17.087 30.9526 17.7794 27.6381 17.7794C26.4866 17.7794 25.4596 17.5849 24.5571 17.1959C23.6702 16.7913 22.9777 16.2623 22.4798 15.6087C21.4994 14.3483 21.0093 12.9401 21.0093 11.384C21.0093 9.42334 21.6395 7.85949 22.8999 6.69244C24.1759 5.50982 25.7631 4.91852 27.6615 4.91852C29.8244 4.91852 31.4116 5.68099 32.423 7.20594C32.9521 8.01509 33.2166 8.90205 33.2166 9.86682ZM28.2917 10.5437C28.883 10.5437 29.1786 10.2947 29.1786 9.79679C29.1786 9.4389 29.0386 9.15103 28.7585 8.93318C28.494 8.71533 28.1049 8.6064 27.5914 8.6064C27.0935 8.6064 26.5956 8.81647 26.0976 9.23661C25.5997 9.64119 25.3507 10.0769 25.3507 10.5437L28.2917 10.5437Z" fill="white"/>
<path d="M42.5298 15.9355C41.9385 16.7135 40.9971 17.1026 39.7055 17.1026C38.414 17.1026 37.2003 16.5112 36.0643 15.3286C34.944 14.1305 34.3838 12.7378 34.3838 11.1506C34.3838 9.5634 34.9518 8.17072 36.0877 6.97255C37.2236 5.77437 38.4685 5.17528 39.8222 5.17528C40.3513 5.17528 40.8337 5.27643 41.2694 5.47872C41.7051 5.66545 42.0007 5.8444 42.1564 6.01556C42.3275 6.17117 42.4598 6.319 42.5531 6.45904C42.5998 6.02334 42.7554 5.69657 43.02 5.47872C43.3001 5.24531 43.7435 5.1286 44.3504 5.1286C44.9573 5.1286 45.4008 5.17528 45.6808 5.26865C45.9609 5.36202 46.1555 5.52541 46.2644 5.75881C46.3889 5.97666 46.4589 6.17117 46.4744 6.34234C46.5056 6.51351 46.5211 6.77804 46.5211 7.13593V16.7991C46.5211 18.5886 45.8987 20.028 44.6539 21.1172C43.409 22.222 42.0085 22.7744 40.4525 22.7744C39.2699 22.7744 38.1417 22.4865 37.068 21.9108C35.9943 21.3351 35.4575 20.8138 35.4575 20.347C35.4575 19.7401 35.6909 19.2032 36.1577 18.7364C36.4534 18.4096 36.679 18.184 36.8346 18.0595C37.0058 17.935 37.2003 17.8728 37.4181 17.8728C37.636 17.8728 37.8616 17.9662 38.095 18.1529C38.8419 18.7286 39.6511 19.0165 40.5225 19.0165C41.1138 19.0165 41.5962 18.7831 41.9696 18.3163C42.3431 17.8495 42.5298 17.2893 42.5298 16.6357L42.5298 15.9355ZM38.3751 11.1739C38.3751 11.6719 38.5696 12.1231 38.9586 12.5277C39.3632 12.9323 39.8456 13.1346 40.4058 13.1346C40.9815 13.1346 41.4561 12.9323 41.8296 12.5277C42.203 12.1076 42.3898 11.6563 42.3898 11.1739C42.3898 10.676 42.2108 10.2169 41.8529 9.79681C41.495 9.36111 41.0126 9.14326 40.4058 9.14326C39.7989 9.14326 39.3088 9.35333 38.9353 9.77347C38.5618 10.1936 38.3751 10.6604 38.3751 11.1739Z" fill="white"/>
<path d="M56.3708 6.48239C56.4642 5.61099 57.0788 5.17529 58.2148 5.17529C58.8216 5.17529 59.2729 5.22198 59.5686 5.31535C59.8642 5.40871 60.0665 5.5721 60.1754 5.8055C60.2999 6.03892 60.3699 6.24898 60.3855 6.43571C60.4166 6.60688 60.4322 6.87141 60.4322 7.22931V15.3987C60.4322 15.7566 60.4166 16.0289 60.3855 16.2156C60.3699 16.3868 60.3077 16.5891 60.1988 16.8225C59.9809 17.227 59.4441 17.4293 58.5882 17.4293C57.748 17.4293 57.18 17.3282 56.8843 17.1259C56.6042 16.908 56.4408 16.5968 56.3942 16.1923C55.8184 17.017 54.8537 17.4293 53.4999 17.4293C52.1617 17.4293 50.9168 16.8147 49.7653 15.5854C48.6138 14.3561 48.0381 12.9323 48.0381 11.314C48.0381 9.68011 48.6138 8.25631 49.7653 7.04257C50.9324 5.81328 52.2083 5.19863 53.5932 5.19863C54.1223 5.19863 54.6047 5.292 55.0404 5.47873C55.4761 5.66545 55.7795 5.8444 55.9507 6.01557C56.1219 6.17117 56.2619 6.32678 56.3708 6.48239V6.48239ZM52.1228 11.3373C52.1228 11.8508 52.3251 12.3176 52.7296 12.7378C53.1342 13.1424 53.6244 13.3447 54.2001 13.3447C54.7759 13.3447 55.2505 13.1346 55.6239 12.7144C56.0129 12.2943 56.2075 11.8353 56.2075 11.3373C56.2075 10.8238 56.0207 10.3492 55.6473 9.91352C55.2894 9.47782 54.7992 9.25997 54.1768 9.25997C53.5699 9.25997 53.072 9.47782 52.683 9.91352C52.3095 10.3492 52.1228 10.8238 52.1228 11.3373H52.1228Z" fill="white"/>
</g>
<defs>
<clipPath id="clip0_67_1160">
<rect width="81.1314" height="24" fill="white"/>
</clipPath>
</defs>
</svg>
