<?xml version="1.0" encoding="UTF-8" standalone="no"?>
<svg
   width="24"
   height="24"
   viewBox="0 0 24 24"
   fill="none"
   version="1.1"
   id="svg1"
   sodipodi:docname="segurança.svg"
   inkscape:version="1.4 (e7c3feb100, 2024-10-09)"
   xmlns:inkscape="http://www.inkscape.org/namespaces/inkscape"
   xmlns:sodipodi="http://sodipodi.sourceforge.net/DTD/sodipodi-0.dtd"
   xmlns="http://www.w3.org/2000/svg"
   xmlns:svg="http://www.w3.org/2000/svg">
  <defs
     id="defs1" />
  <sodipodi:namedview
     id="namedview1"
     pagecolor="#ffffff"
     bordercolor="#000000"
     borderopacity="0.25"
     inkscape:showpageshadow="2"
     inkscape:pageopacity="0.0"
     inkscape:pagecheckerboard="0"
     inkscape:deskcolor="#d1d1d1"
     inkscape:zoom="33.25"
     inkscape:cx="12.015038"
     inkscape:cy="13.203008"
     inkscape:window-width="1920"
     inkscape:window-height="1011"
     inkscape:window-x="0"
     inkscape:window-y="0"
     inkscape:window-maximized="1"
     inkscape:current-layer="svg1" />
  <path
     d="M11.667 2C10.2318 2 8.95453 2.49245 8.05701 3.38997C7.15948 4.2875 6.66703 5.56482 6.66703 7V11.0527C5.66803 12.2189 5.00037 13.6834 5.00037 15.3333C5.00037 19.0054 7.99501 22 11.667 22C15.3391 22 18.3337 19.0054 18.3337 15.3333C18.3337 13.6834 17.666 12.2189 16.667 11.0527V7C16.667 5.56482 16.1746 4.2875 15.2771 3.38997C14.3795 2.49245 13.1022 2 11.667 2ZM11.667 3.66667C12.7318 3.66667 13.5379 4.00755 14.0987 4.56836C14.6595 5.12917 15.0004 5.93519 15.0004 7V9.69368C14.0043 9.10032 12.9066 8.66667 11.667 8.66667C10.4275 8.66667 9.32975 9.10032 8.3337 9.69368V7C8.3337 5.93519 8.67458 5.12917 9.23539 4.56836C9.7962 4.00755 10.6022 3.66667 11.667 3.66667ZM11.667 10.3333C14.4383 10.3333 16.667 12.562 16.667 15.3333C16.667 18.1046 14.4383 20.3333 11.667 20.3333C8.89574 20.3333 6.66703 18.1046 6.66703 15.3333C6.66703 12.562 8.89574 10.3333 11.667 10.3333ZM11.667 12.8333C10.7564 12.8333 10.0004 13.5894 10.0004 14.5C10.0004 15.0878 10.3655 15.5211 10.8337 15.8184V17.8333H12.5004V15.8184C12.9686 15.5211 13.3337 15.0878 13.3337 14.5C13.3337 13.5894 12.5776 12.8333 11.667 12.8333Z"
     fill="black"
     id="path1"
     style="fill:#cf2d2d;fill-opacity:1" />
</svg>
